<svg width="682" height="615" viewBox="0 0 682 615" fill="none" xmlns="http://www.w3.org/2000/svg">
<rect width="621" height="615" rx="307.5" fill="white"/>
<path d="M552.648 522.395C570.84 494.827 576.017 459.05 566.383 427.455C560.292 407.481 548.605 388.925 547.111 368.097C544.12 326.453 581.797 292.784 589.611 251.771C593.048 233.746 589.298 212.746 574.574 201.797C560.031 190.983 539.271 193.19 522.805 200.764C506.339 208.338 492.408 220.462 476.599 229.324C460.79 238.188 441.325 243.666 424.63 236.613C407.719 229.469 398.128 211.457 392.755 193.904C387.383 176.348 384.745 157.653 375.575 141.75C360.461 115.539 328.239 101.248 298.212 104.946C268.182 108.644 241.355 128.902 226.963 155.515C212.572 182.129 210.056 214.318 217.221 243.714C220.856 258.622 226.841 272.899 230.105 287.894C233.369 302.888 233.668 319.298 226.381 332.803C211.142 361.046 170.939 364.985 149.886 389.203C132.509 409.192 131.966 439.698 141.826 464.279C151.688 488.862 170.218 508.808 188.696 527.784C274.879 530.681 362.605 530.873 448.789 533.77C482.284 534.895 519.192 524.364 552.648 522.395Z" fill="#C0D4FF"/>
<g opacity="0.5">
<path d="M184.469 164.648C167.212 193.439 166.434 231.385 182.496 260.86C187.571 270.173 194.426 278.85 203.682 284.03C212.938 289.208 224.878 290.364 234.091 285.107C248.062 277.137 251.153 258.341 250.041 242.294C248.93 226.247 245.293 209.425 251.472 194.573C255.501 184.894 263.236 177.346 270.098 169.421C276.961 161.493 283.365 152.24 283.719 141.762C284.638 114.598 255.799 116.626 238.419 122.269C216.23 129.471 196.499 144.577 184.469 164.648Z" fill="#C0D4FF"/>
</g>
<g opacity="0.5">
<path d="M522.198 209.559C521.972 233.938 545.143 255.152 541.11 279.195C538.954 292.058 529.153 305.097 534.849 316.831C539.89 327.212 554.323 329.012 565.359 325.638C591.193 317.733 606.896 291.327 614.405 265.377C621.468 240.965 623.223 213.701 611.909 190.944C602.795 172.611 581.763 156.424 560.408 157.921C540.846 159.293 522.371 191.198 522.198 209.559Z" fill="#C0D4FF"/>
</g>
<path d="M548.345 527.966L546.493 526.272C551.591 520.7 559.731 507.924 556.977 484.954C555.751 474.728 552.71 464.63 549.77 454.862C548.456 450.499 547.1 445.985 545.914 441.504C533.269 393.693 538.799 340.955 561.089 296.809C563.067 292.89 565.209 288.96 567.282 285.159C573.425 273.889 579.779 262.236 582.509 249.648C587.299 227.558 577.831 211.001 567.004 204.966C556.62 199.172 541.959 200.059 526.785 207.395C521.233 210.08 515.839 213.36 510.621 216.534C503.725 220.73 496.596 225.068 488.941 228.139C458.823 240.223 421.167 229.954 401.353 204.256C391.829 191.906 386.453 176.982 381.254 162.548C379.238 156.955 377.154 151.171 374.865 145.638C367.737 128.43 354.696 106.832 333.03 101.666C313.991 97.1247 294.71 107.105 281.891 116.277C257.363 133.827 240.073 157.596 233.204 183.202C228.573 200.469 228.386 219.263 228.205 237.438C227.937 264.505 227.659 292.492 212.374 315.032C205.421 325.286 195.857 333.469 186.608 341.382C177.947 348.792 168.99 356.454 162.313 365.742C147.184 386.785 143.475 416.581 152.138 447.486C159.923 475.253 175.792 499.89 191.139 523.716L189.028 525.076C173.582 501.094 157.61 476.295 149.722 448.163C140.853 416.52 144.7 385.944 160.277 364.278C167.13 354.744 176.202 346.983 184.977 339.476C194.1 331.672 203.533 323.6 210.298 313.626C225.158 291.712 225.419 265.338 225.697 237.415C225.879 219.082 226.067 200.126 230.781 182.551C237.8 156.385 255.432 132.125 280.43 114.238C293.675 104.762 313.652 94.4639 333.612 99.2238C356.307 104.636 369.832 126.929 377.182 144.677C379.497 150.266 381.59 156.077 383.614 161.698C388.748 175.949 394.056 190.687 403.338 202.723C422.494 227.565 458.893 237.491 488.009 225.811C495.47 222.818 502.508 218.535 509.317 214.393C514.585 211.187 520.033 207.873 525.692 205.136C541.61 197.441 557.114 196.577 568.228 202.774C579.834 209.247 590.023 226.842 584.961 250.179C582.153 263.12 575.714 274.934 569.486 286.36C567.423 290.144 565.289 294.056 563.329 297.939C541.311 341.545 535.849 393.639 548.34 440.863C549.513 445.303 550.864 449.795 552.172 454.138C555.143 464.007 558.215 474.215 559.468 484.657C562.342 508.621 553.734 522.079 548.345 527.966Z" fill="#A1C5FF"/>
<path d="M170.055 371.278C172.46 362.675 171.476 353.962 167.965 346.41C160.419 348.902 153.922 354.674 151.151 363.471C150.001 367.123 149.618 370.964 149.919 374.782C146.528 367.791 143.423 360.649 140.613 353.369C147.167 350.573 152.544 345.051 155.743 337.724C159.312 329.495 159.535 320.658 157.102 312.597C149.28 313.999 142.042 318.834 138.082 327.223C136.438 330.703 135.527 334.482 135.301 338.332C133.723 333.426 132.276 328.464 130.967 323.453C133.729 316.549 134.636 308.604 133.177 300.361C131.44 290.622 126.73 282.226 120.272 276.305C114.872 283.163 112.214 293.266 114.088 303.754C115.655 312.613 120.145 320.019 125.959 324.762C126.474 326.731 127.008 328.689 127.564 330.643C125.216 327.492 122.45 324.636 119.257 322.237C111.602 316.489 102.988 314.498 95.3132 316.713C96.9924 327.105 102.523 336.809 110.617 342.39C117.858 347.406 125.68 348.273 132.464 346.172C135.077 353.695 137.998 361.087 141.215 368.328C138.464 365.572 135.336 363.165 131.849 361.271C123.492 356.73 114.698 356.022 107.408 359.289C110.494 369.215 117.289 377.949 126.059 382.281C133.907 386.179 141.762 385.924 148.184 382.894C151.797 389.926 155.697 396.797 159.87 403.488C156.771 401.157 153.348 399.223 149.64 397.85C140.753 394.558 131.957 395.107 125.194 399.356C129.602 408.689 137.519 416.346 146.789 419.392C155.087 422.139 162.827 420.789 168.765 416.894C173.306 423.339 178.114 429.593 183.176 435.641C179.783 433.762 176.126 432.324 172.265 431.481C163.013 429.463 154.388 431.238 148.279 436.384C153.926 444.996 162.823 451.475 172.429 453.207C181.029 454.778 188.51 452.372 193.85 447.691C199.25 453.451 204.895 458.993 210.772 464.301C207.141 462.9 203.312 461.977 199.365 461.673C189.908 460.945 181.608 463.898 176.275 469.843C183.077 477.602 192.816 482.808 202.599 483.211C211.359 483.592 218.449 480.179 223.085 474.8C229.273 479.779 235.685 484.513 242.31 488.983C238.489 488.089 234.545 487.695 230.575 487.932C221.062 488.499 213.241 492.568 208.792 499.202C216.661 505.976 227.11 509.82 236.919 508.887C245.704 508.071 252.281 503.714 256.115 497.736C267.31 504.39 279.039 510.323 291.249 515.46C292.858 516.137 294.608 515.598 295.146 514.274C295.681 512.949 294.832 511.352 293.256 510.688C284.259 506.903 275.527 502.677 267.083 498.043C270.286 491.679 270.791 483.965 268.472 476.274C265.849 467.652 260.315 460.737 253.312 456.179C248.238 462.293 245.789 470.633 248.151 479.593C249.134 483.311 250.874 486.791 253.196 489.89C246.527 485.713 240.059 481.27 233.809 476.579C237.879 470.732 239.503 463.193 238.34 455.29C237.016 446.433 232.57 438.862 226.319 433.412C220.442 438.761 216.838 446.663 217.875 455.823C218.308 459.625 219.52 463.294 221.353 466.664C215.399 461.643 209.669 456.385 204.175 450.904C209.024 445.686 211.703 438.463 211.679 430.503C211.629 421.574 208.305 413.49 202.887 407.244C196.324 411.724 191.654 419.042 191.389 428.235C191.28 432.053 191.96 435.843 193.294 439.422C188.125 433.65 183.201 427.668 178.533 421.497C184.061 417.002 187.722 410.229 188.808 402.351C190.005 393.513 187.837 385.047 183.332 378.101C176.209 381.625 170.571 388.228 169.034 397.297C168.397 401.061 168.544 404.909 169.366 408.636C165.052 402.208 161.002 395.599 157.229 388.825C163.329 385.143 167.893 378.941 170.055 371.278Z" fill="#99B9FF"/>
<path d="M597.18 414.136C595.881 406.411 597.549 398.906 601.31 392.646C607.657 395.52 612.787 401.154 614.388 409.082C615.051 412.372 615.03 415.758 614.412 419.058C618.017 413.279 621.387 407.339 624.511 401.253C619.057 398.205 614.881 392.893 612.772 386.206C610.423 378.701 611.046 370.975 613.917 364.173C620.606 366.121 626.47 371.009 629.145 378.689C630.256 381.876 630.698 385.256 630.539 388.633C632.369 384.503 634.091 380.31 635.698 376.062C633.929 369.787 633.875 362.776 635.912 355.722C638.329 347.393 643.214 340.508 649.397 335.945C653.468 342.427 654.848 351.481 652.242 360.452C650.055 368.03 645.451 374.072 639.944 377.669C639.312 379.336 638.664 380.996 637.999 382.647C640.336 380.119 643.015 377.883 646.021 376.089C653.228 371.786 660.923 370.848 667.409 373.493C664.981 382.397 659.261 390.346 651.684 394.462C644.907 398.163 638.005 398.194 632.285 395.733C629.308 402.051 626.076 408.223 622.6 414.239C625.255 412.091 628.204 410.282 631.422 408.954C639.13 405.771 646.862 405.967 652.917 409.493C649.304 417.863 642.569 424.846 634.519 427.811C627.318 430.481 620.493 429.531 615.172 426.293C611.37 432.089 607.334 437.718 603.073 443.166C605.992 441.42 609.156 440.053 612.517 439.197C620.57 437.151 628.189 438.446 633.693 442.778C628.982 450.508 621.37 456.449 613.003 458.245C605.514 459.87 598.892 457.976 594.076 454.029C589.517 459.228 584.746 464.234 579.773 469.037C582.905 467.713 586.225 466.801 589.67 466.424C597.922 465.522 605.28 467.868 610.13 472.923C604.407 479.906 596.049 484.731 587.511 485.351C579.868 485.925 573.569 483.132 569.346 478.555C564.104 483.077 558.668 487.384 553.051 491.467C556.347 490.583 559.772 490.135 563.242 490.234C571.556 490.476 578.516 493.821 582.616 499.5C575.967 505.632 566.991 509.272 558.424 508.714C550.751 508.233 544.884 504.6 541.342 499.48C535.484 503.248 529.456 506.781 523.264 510.064C526.679 509.638 530.155 509.661 533.594 510.235C541.836 511.612 548.278 515.884 551.541 522.082C544.052 527.258 534.585 529.642 526.119 527.917C518.534 526.391 513.205 521.981 510.416 516.414C500.038 521.178 489.262 525.264 478.139 528.61C476.673 529.051 475.196 528.419 474.85 527.214C474.505 526.01 475.396 524.696 476.83 524.264C485.027 521.796 493.032 518.923 500.824 515.664C498.621 509.819 498.895 503.047 501.633 496.556C504.719 489.283 510.184 483.766 516.714 480.44C520.571 486.243 521.933 493.742 519.041 501.335C517.841 504.485 516.001 507.359 513.689 509.846C519.891 506.821 525.942 503.546 531.828 500.036C528.819 494.561 528.104 487.836 529.85 481.055C531.827 473.454 536.405 467.266 542.362 463.094C546.99 468.302 549.399 475.525 547.643 483.417C546.915 486.691 545.517 489.778 543.606 492.547C549.265 488.721 554.748 484.667 560.046 480.399C556.302 475.398 554.637 468.852 555.397 461.914C556.268 454.135 559.916 447.393 565.218 442.451C570.524 446.965 573.92 453.78 573.297 461.82C573.038 465.157 572.093 468.399 570.599 471.396C575.64 466.843 580.488 462.086 585.131 457.136C580.728 452.704 578.163 446.46 577.947 439.491C577.724 431.672 580.4 424.493 584.972 418.854C590.856 422.587 595.16 428.868 595.658 436.918C595.864 440.259 595.379 443.598 594.318 446.773C598.673 441.568 602.819 436.181 606.735 430.626C601.76 426.848 598.356 421.019 597.18 414.136Z" fill="#99C1FF"/>
<path d="M630.141 538.704H126.956C121.802 538.704 117.623 534.524 117.623 529.37C117.623 524.215 121.802 520.038 126.956 520.038H630.141C635.296 520.038 639.474 524.215 639.474 529.37C639.474 534.524 635.296 538.704 630.141 538.704Z" fill="#7391FF"/>
<path d="M282.199 393.487C271.909 387.439 264.367 376.897 261.969 365.205C259.571 353.512 262.353 340.854 269.432 331.245C274.934 323.775 283.187 317.387 284.226 308.168C285.302 298.615 278.148 290.334 274.851 281.305C270.832 270.3 272.903 257.284 280.136 248.069C285.368 241.404 293.091 236.573 296.585 228.853C298.78 224 299.042 218.534 299.652 213.242C300.261 207.949 301.38 202.424 304.865 198.393C308.35 194.363 314.881 192.53 319.127 195.747C327.172 187.441 336.641 177.37 347.302 172.895C357.963 168.419 370.77 167.784 380.748 173.626C388.641 178.249 393.894 186.248 400.828 192.214C406.784 197.342 413.904 200.902 420.328 205.429C426.752 209.955 432.736 215.879 434.707 223.485C437.944 235.989 429.59 248.55 429.204 261.46C428.83 274.004 435.964 285.565 437.554 298.014C439.166 310.642 434.901 323.46 428.175 334.269C421.447 345.077 412.37 354.192 403.374 363.202C399.73 379.476 387.74 390.998 372.44 397.633C357.141 404.268 340.018 405.406 323.353 404.805C309.78 404.313 293.908 400.368 282.199 393.487Z" fill="#7F4300"/>
<path d="M300.755 360.872C297.287 356.284 297.387 349.885 298.834 344.318C300.282 338.752 302.9 333.521 304.042 327.885C305.586 320.269 304.352 312.379 302.77 304.772C301.189 297.164 299.252 289.532 299.395 281.762C299.54 273.993 302.083 265.874 308.026 260.868C328.865 243.317 362.609 249.414 389.705 252.264C403.398 253.704 412.763 266.915 417.105 279.982C421.447 293.048 419.977 307.606 414.805 320.368C409.636 333.131 400.977 344.234 391.139 353.868C385.271 359.616 374.875 355.003 366.815 356.586C358.916 358.137 352.104 362.959 344.68 366.073C332.818 371.048 319.137 371.539 306.948 367.426C303.369 366.217 300.355 364.628 300.755 360.872Z" fill="#6B3900"/>
<path d="M445.293 374.102C435.502 361.427 421.358 352.179 405.821 348.293C398.681 346.507 391.276 345.817 384.253 343.615C382.265 342.993 380.303 342.203 378.415 341.27C375.664 330.531 374.3 319.437 374.389 308.351H355.471H352.149H333.23C333.32 319.437 331.955 330.531 329.204 341.269C327.318 342.203 325.354 342.993 323.368 343.615C316.345 345.817 308.94 346.507 301.799 348.293C286.261 352.179 272.118 361.427 262.327 374.102C252.536 386.778 247.159 402.798 247.323 418.814V520.523L430.934 517.836C447.22 517.599 460.298 504.329 460.298 488.041V418.814C460.46 402.798 455.085 386.778 445.293 374.102Z" fill="#FFC985"/>
<path d="M373.904 513.956C377.41 504.77 377.712 494.732 378.982 484.979C381.419 466.271 387.52 448.264 391.849 429.9C396.176 411.536 400.014 391.528 395.271 373.266C368.501 376.486 341.34 376.441 314.58 373.14C304.452 377.388 299.193 390.169 297.312 400.99C295.43 411.813 296.806 422.891 297.016 433.874C297.246 445.884 296.07 457.905 296.638 469.906C297.205 481.906 299.677 494.186 306.462 504.101C310.658 510.234 316.288 515.137 322.406 519.426L371.666 518.705C372.532 517.17 373.287 515.576 373.904 513.956Z" fill="white"/>
<path d="M297.311 410.567C299.192 399.747 304.45 386.965 314.578 382.717C341.338 386.019 368.501 386.06 395.271 382.844C396.424 387.284 397.061 391.829 397.317 396.427C397.703 388.569 397.221 380.769 395.271 373.266C368.501 376.484 341.338 376.441 314.578 373.14C304.45 377.388 299.192 390.169 297.311 400.99C296.278 406.931 296.236 412.948 296.435 418.984C296.563 416.165 296.826 413.358 297.311 410.567Z" fill="#EEEEEE"/>
<path d="M297.018 443.449C297.011 443.073 296.993 442.697 296.984 442.321C296.808 450.562 296.337 458.803 296.549 467.036C296.72 459.174 297.168 451.311 297.018 443.449Z" fill="#EEEEEE"/>
<path d="M331.878 325.147C346.657 325.522 361.513 322.036 374.597 315.16C374.588 313.149 374.61 311.135 374.696 309.126L355.789 308.468L352.466 308.352L333.56 307.694C333.404 313.542 332.832 319.376 331.878 325.147Z" fill="#A57951"/>
<path d="M317.113 253.918C315.562 250.775 313.657 247.629 310.684 245.774C307.71 243.92 303.41 243.777 300.986 246.31C299.019 248.366 298.781 251.497 298.854 254.342C299.004 260.097 300.062 266.04 303.364 270.757C306.665 275.473 312.618 278.661 318.231 277.385C319.301 269.593 320.597 260.968 317.113 253.918Z" fill="#FFC985"/>
<path d="M316.522 260.005C316.719 260.044 316.917 260.082 317.116 260.121C316.409 258.201 315.698 256.268 314.664 254.502C313.63 252.735 312.246 251.124 310.459 250.126C308.672 249.127 306.449 248.803 304.545 249.557C302.641 250.31 301.183 252.25 301.28 254.293C302.43 253.033 304.447 252.711 306.104 253.113C307.765 253.516 309.156 254.872 309.599 256.52C308.135 256.639 307.018 258.075 306.667 259.501C306.315 260.928 306.642 262.439 307.169 263.812C307.474 264.61 307.855 265.395 308.437 266.02C309.018 266.647 309.825 267.105 310.68 267.115C309.878 268.115 308.542 268.881 307.261 268.897C309.97 270.338 313.563 270.275 316.154 268.628C316.628 265.772 316.674 262.896 316.522 260.005Z" fill="#E8AB71"/>
<path d="M392.187 259.535C393.953 256.509 396.071 253.501 399.166 251.857C402.262 250.214 406.561 250.37 408.803 253.066C410.623 255.253 410.643 258.393 410.372 261.227C409.822 266.957 408.354 272.812 404.732 277.289C401.111 281.764 394.952 284.531 389.441 282.867C388.916 275.019 388.221 266.327 392.187 259.535Z" fill="#FFC985"/>
<path d="M392.353 265.649C392.152 265.674 391.954 265.699 391.752 265.724C392.591 263.857 393.435 261.977 394.588 260.287C395.743 258.597 397.235 257.087 399.086 256.215C400.94 255.344 403.18 255.174 405.027 256.057C406.874 256.941 408.194 258.977 407.955 261.009C406.896 259.672 404.906 259.21 403.223 259.497C401.54 259.783 400.058 261.041 399.499 262.653C400.954 262.874 401.968 264.383 402.219 265.831C402.471 267.278 402.039 268.764 401.419 270.097C401.059 270.871 400.624 271.628 400 272.213C399.377 272.798 398.54 273.196 397.686 273.146C398.417 274.2 399.696 275.058 400.974 275.162C398.169 276.411 394.589 276.1 392.121 274.277C391.846 271.395 392 268.523 392.353 265.649Z" fill="#E8AB71"/>
<path d="M324.826 260.078C324.598 266.617 319.114 271.732 312.575 271.505C306.037 271.277 300.923 265.793 301.151 259.254C301.378 252.716 306.861 247.602 313.399 247.83C319.938 248.057 325.053 253.54 324.826 260.078Z" fill="#009ACB"/>
<path d="M408.631 262.994C408.404 269.533 402.92 274.648 396.382 274.421C389.841 274.193 384.726 268.709 384.954 262.17C385.181 255.632 390.665 250.518 397.206 250.746C403.743 250.973 408.859 256.456 408.631 262.994Z" fill="#009ACB"/>
<path d="M396.704 265.146C395.62 296.322 375.948 320.941 352.767 320.134C329.585 319.327 311.67 293.401 312.754 262.225C313.839 231.05 314.72 205.778 356.695 207.238C398.669 208.699 397.789 233.971 396.704 265.146Z" fill="#FFC985"/>
<path d="M315.997 241.11C314.708 240.458 317.052 238.265 320.497 237.463C329.626 235.338 339.671 234.649 346.993 240.499C347.235 242.067 345.177 243.849 343.598 243.985C342.017 244.122 340.5 243.43 339.027 242.839C331.847 239.968 323.574 239.562 315.997 241.11Z" fill="#7F4300"/>
<path d="M394.557 243.844C395.888 243.282 393.703 240.932 390.321 239.893C381.364 237.138 371.389 235.752 363.678 241.08C363.328 242.627 365.257 244.548 366.823 244.793C368.39 245.039 369.951 244.455 371.462 243.968C378.825 241.602 387.107 241.772 394.557 243.844Z" fill="#7F4300"/>
<path d="M342.424 276.964C342.367 278.593 337.133 279.734 330.731 279.511C324.33 279.288 319.187 277.787 319.244 276.157C319.3 274.527 324.535 273.387 330.936 273.61C337.338 273.832 342.481 275.334 342.424 276.964Z" fill="#FFAE6A"/>
<path d="M388.62 278.571C388.563 280.201 383.328 281.341 376.927 281.118C370.525 280.896 365.38 279.394 365.436 277.764C365.493 276.135 370.731 274.994 377.132 275.217C383.534 275.44 388.676 276.942 388.62 278.571Z" fill="#FFAE6A"/>
<path d="M354.057 251.448C354.898 259.13 352.715 267.103 348.077 273.285C347.1 274.587 345.964 275.957 345.963 277.585C345.963 279.426 347.511 280.991 349.26 281.566C351.009 282.142 352.914 281.93 354.728 281.613" stroke="#EAAB6A" stroke-width="2" stroke-linecap="round" stroke-linejoin="round"/>
<path d="M331.289 271.718C320.978 271.359 312.883 262.678 313.242 252.368C313.601 242.058 322.279 233.961 332.59 234.32C342.899 234.679 350.996 243.359 350.637 253.67C350.278 263.979 341.598 272.077 331.289 271.718ZM332.484 237.364C323.853 237.064 316.585 243.842 316.284 252.474C315.984 261.106 322.764 268.372 331.395 268.673C340.026 268.973 347.294 262.195 347.595 253.564C347.895 244.931 341.115 237.664 332.484 237.364Z" fill="white"/>
<path d="M378.217 273.351C367.907 272.992 359.811 264.311 360.17 254.002C360.528 243.691 369.208 235.595 379.518 235.953C389.828 236.312 397.923 244.992 397.565 255.303C397.206 265.612 388.527 273.71 378.217 273.351ZM379.412 238.997C370.781 238.697 363.511 245.475 363.211 254.107C362.91 262.739 369.691 270.005 378.322 270.306C386.955 270.606 394.222 263.828 394.522 255.197C394.823 246.564 388.044 239.297 379.412 238.997Z" fill="white"/>
<path d="M349.953 254.888L348.278 252.343C350.828 250.668 357.101 248.616 362.618 252.845L360.764 255.263C355.567 251.277 350.009 254.85 349.953 254.888Z" fill="white"/>
<path d="M341.782 289.144C349.532 294.021 360.095 293.994 367.819 289.075" stroke="#EAAB6A" stroke-width="2" stroke-linecap="round" stroke-linejoin="round"/>
<path d="M349.7 298.623C352.178 299.556 354.888 299.867 357.514 299.519" stroke="#EAAB6A" stroke-width="2" stroke-linecap="round" stroke-linejoin="round"/>
<path d="M297.19 264.641C311.714 254.823 323.184 240.551 329.647 224.255C339.272 233.869 353.29 239.344 366.892 239.24C364.26 237.941 362.361 235.466 360.827 232.963C373.836 236.52 384.835 244.872 393.116 255.518C396.479 259.841 399.292 264.619 403.128 268.529C406.966 272.437 412.168 275.481 417.631 275.085C414.741 260.529 411.955 245.49 406.998 231.502C403.955 222.915 400.315 214.146 393.549 208.043C385.132 200.453 373.088 198.181 361.759 198.616C349.674 199.081 337.671 202.308 327.12 208.216C312.783 216.245 301.302 229.258 295.121 244.482C293.754 247.847 292.627 251.393 292.662 255.025C292.697 258.66 294.351 262.374 297.19 264.641Z" fill="#7F4300"/>
<path d="M312.418 274.437C312.345 276.549 310.574 278.201 308.464 278.127C306.352 278.054 304.699 276.283 304.772 274.171C304.846 272.059 306.618 270.41 308.73 270.484C310.84 270.557 312.492 272.325 312.418 274.437Z" fill="#FFEF21"/>
<path d="M403.925 277.621C403.851 279.733 402.079 281.385 399.967 281.311C397.857 281.238 396.205 279.467 396.278 277.355C396.352 275.243 398.123 273.594 400.233 273.668C402.345 273.741 403.998 275.509 403.925 277.621Z" fill="#FFEF21"/>
<path d="M333.019 247.461C331.664 247.414 330.443 248.486 329.706 250.128L332.81 253.457L329.482 256.561C330.104 258.252 331.247 259.406 332.602 259.453C334.713 259.526 336.517 256.9 336.632 253.59C336.747 250.278 335.13 247.534 333.019 247.461Z" fill="#4F4519"/>
<path d="M377.672 249.015C376.316 248.968 375.096 250.039 374.36 251.681L377.464 255.011L374.136 258.115C374.756 259.805 375.899 260.959 377.255 261.006C379.367 261.08 381.17 258.454 381.285 255.144C381.401 251.832 379.784 249.088 377.672 249.015Z" fill="#4F4519"/>
<path d="M306.39 238.864C305.773 232.708 306.711 226.33 308.882 220.332C311.118 214.358 314.623 208.758 319.211 204.128C323.749 199.45 329.356 195.759 335.481 193.318C341.611 190.872 348.278 189.745 354.886 189.95C361.492 190.2 368.063 191.787 374.011 194.651C379.951 197.515 385.297 201.578 389.496 206.567C393.751 211.507 396.862 217.334 398.675 223.452C400.422 229.59 400.914 236.017 399.863 242.116C398.71 229.821 393.406 218.638 385.152 210.618C376.887 202.616 365.89 197.932 354.621 197.556C343.352 197.136 332.051 201.048 323.247 208.456C314.453 215.883 308.385 226.678 306.39 238.864Z" fill="white"/>
<path d="M405.821 348.293C399.904 346.814 393.809 346.076 387.897 344.616C375.451 402.063 366.658 460.295 361.575 518.852L430.933 517.838C447.219 517.6 460.296 504.329 460.296 488.041V418.815C460.46 402.798 455.085 386.779 445.293 374.102C435.503 361.428 421.359 352.179 405.821 348.293Z" fill="#00A5D4"/>
<path d="M321.041 344.284C314.721 345.977 308.156 346.703 301.801 348.293C286.262 352.179 272.119 361.427 262.328 374.102C252.536 386.778 247.159 402.798 247.323 418.814V520.523L347.452 519.058C342.363 460.319 333.539 401.904 321.041 344.284Z" fill="#00A5D4"/>
<path d="M301.801 348.293C299.644 348.834 297.517 349.486 295.422 350.228C290.589 363.963 286.157 377.797 282.194 391.72C289.762 396.087 297.076 401.525 305.311 404.978C302.34 412.226 299.161 420.249 296.191 427.495C311.346 456.614 324.367 488.362 334.983 519.21L347.452 519.06C341.315 460.737 330.7 402.736 315.692 345.514C311.067 346.447 306.38 347.147 301.801 348.293Z" fill="#00A5D4"/>
<path d="M412.894 427.496C409.989 420.249 406.881 412.227 403.976 404.98C412.028 401.525 419.179 396.087 426.581 391.721C422.762 378.004 418.503 364.373 413.86 350.837C411.234 349.835 408.55 348.977 405.822 348.293C401.455 347.202 396.992 346.511 392.576 345.64C377.936 402.754 367.576 460.643 361.576 518.854L375.147 518.655C385.493 487.983 398.164 456.439 412.894 427.496Z" fill="#00A5D4"/>
<path d="M321.041 344.284C315.906 345.659 310.61 346.404 305.394 347.485C301.102 362.121 297.198 376.87 293.718 391.72C299.951 396.087 305.972 401.526 312.753 404.979C310.307 412.227 307.689 420.249 305.243 427.495C317.723 456.616 328.445 488.362 337.186 519.211L347.452 519.06C342.363 460.32 333.539 401.904 321.041 344.284Z" fill="#00B1E4"/>
<path d="M404.817 348.069C399.216 346.747 393.477 345.994 387.897 344.618C375.452 402.063 366.658 460.295 361.576 518.853L372.994 518.686C381.708 488.003 392.384 456.45 404.792 427.495C402.346 420.249 399.728 412.226 397.281 404.978C404.063 401.525 410.082 396.087 416.314 391.72C412.882 377.068 409.041 362.513 404.817 348.069Z" fill="#00B1E4"/>
<path d="M324.626 345.007C324.032 345.007 323.439 344.764 323.012 344.337C322.906 344.23 322.814 344.109 322.723 343.987C322.648 343.864 322.571 343.728 322.525 343.59C322.464 343.454 322.418 343.301 322.388 343.165C322.357 343.012 322.342 342.861 322.342 342.722C322.342 342.572 322.357 342.419 322.388 342.266C322.418 342.13 322.464 341.977 322.525 341.84C322.571 341.703 322.648 341.565 322.723 341.444C322.814 341.323 322.906 341.201 323.012 341.094C323.546 340.575 324.337 340.334 325.068 340.468C325.219 340.5 325.357 340.546 325.494 340.607C325.646 340.669 325.768 340.73 325.889 340.819C326.027 340.897 326.132 341.002 326.24 341.094C326.347 341.201 326.438 341.323 326.529 341.444C326.605 341.565 326.682 341.703 326.743 341.84C326.789 341.977 326.833 342.13 326.864 342.266C326.894 342.419 326.91 342.572 326.91 342.722C326.91 342.861 326.894 343.012 326.864 343.165C326.833 343.301 326.789 343.454 326.743 343.59C326.682 343.728 326.605 343.864 326.529 343.987C326.438 344.109 326.347 344.23 326.24 344.337C326.132 344.444 326.027 344.536 325.889 344.611C325.768 344.703 325.646 344.764 325.494 344.825C325.357 344.886 325.219 344.931 325.068 344.961C324.93 344.992 324.779 345.007 324.626 345.007Z" fill="#FFEF21"/>
<path d="M351.149 358.13C350.008 358.086 349.078 357.202 348.972 356.09C348.683 357.157 347.632 357.902 346.505 357.765H346.49C345.364 357.628 344.51 356.685 344.48 355.572C344.116 356.623 343.019 357.278 341.893 357.064C340.766 356.851 339.99 355.832 340.034 354.704C339.579 355.739 338.407 356.288 337.295 355.953C336.167 355.617 335.497 354.492 335.711 353.365C335.103 354.338 333.838 354.736 332.771 354.219C331.707 353.7 331.219 352.45 331.63 351.355C330.824 352.222 329.484 352.345 328.54 351.615C327.596 350.867 327.382 349.529 328.052 348.539C327.049 349.209 325.709 348.995 324.962 348.036C324.2 347.032 324.384 345.599 325.387 344.825C326.392 344.063 327.824 344.259 328.586 345.249H328.601C329.195 346.056 329.21 347.122 328.676 347.913C329.484 347.382 330.549 347.396 331.356 348.005C332.163 348.631 332.423 349.695 332.088 350.609C332.758 349.893 333.838 349.649 334.752 350.107C335.711 350.564 336.198 351.583 336.016 352.573C336.548 351.705 337.598 351.279 338.619 351.583C339.64 351.887 340.293 352.862 340.232 353.882C340.66 352.94 341.694 352.375 342.745 352.573C343.827 352.772 344.572 353.7 344.602 354.75C344.952 353.76 345.942 353.107 347.024 353.229C348.105 353.351 348.927 354.219 349.034 355.254C349.308 354.248 350.236 353.518 351.331 353.562C352.413 353.608 353.296 354.399 353.479 355.421C353.661 354.399 354.545 353.608 355.625 353.547C356.707 353.501 357.635 354.219 357.924 355.207C358.016 354.171 358.807 353.304 359.873 353.151C360.938 352.999 361.944 353.608 362.325 354.567C362.309 353.532 362.994 352.589 364.045 352.329C365.08 352.071 366.131 352.557 366.618 353.471C366.497 352.45 367.075 351.447 368.065 351.066C369.07 350.686 370.167 351.035 370.759 351.872C370.516 350.882 370.958 349.818 371.901 349.314C372.845 348.813 373.973 349.041 374.657 349.802C374.291 348.842 374.597 347.731 375.464 347.122C376.332 346.498 377.474 346.575 378.25 347.229C377.763 346.331 377.915 345.204 378.677 344.474C379.59 343.605 381.037 343.635 381.904 344.548C382.788 345.463 382.742 346.91 381.828 347.777C380.991 348.585 379.682 348.614 378.799 347.884C379.347 348.874 379.073 350.153 378.114 350.837C377.17 351.522 375.876 351.355 375.099 350.517C375.51 351.583 375.083 352.801 374.049 353.351C373.013 353.897 371.749 353.579 371.109 352.649C371.384 353.746 370.791 354.902 369.709 355.328C368.613 355.739 367.41 355.267 366.876 354.278C367.014 355.389 366.298 356.472 365.172 356.761C364.045 357.05 362.904 356.44 362.492 355.389C362.492 356.516 361.669 357.507 360.528 357.674C359.371 357.841 358.305 357.125 358.001 356.028C357.909 357.157 356.996 358.054 355.839 358.115C354.681 358.159 353.692 357.353 353.479 356.256C353.296 357.324 352.353 358.13 351.241 358.13H351.149Z" fill="#FFEF21"/>
<path d="M383.275 345.053C382.681 345.053 382.088 344.808 381.662 344.383C381.235 343.956 380.991 343.378 380.991 342.767C380.991 342.175 381.235 341.58 381.662 341.153C382.514 340.301 384.035 340.301 384.887 341.153C385.315 341.58 385.559 342.175 385.559 342.767C385.559 343.362 385.315 343.956 384.887 344.383C384.46 344.808 383.87 345.053 383.275 345.053Z" fill="#FFEF21"/>
<path d="M339.679 301.483C339.654 301.482 339.629 301.481 339.606 301.479C335.29 301.075 330.828 300.659 326.514 299.495C321.569 298.16 317.556 296.003 314.587 293.092C309.953 288.546 308.134 282.409 307.426 278.059C306.536 272.599 306.81 267.051 307.077 261.687C307.111 260.994 307.758 260.467 308.392 260.496C309.084 260.531 309.617 261.119 309.584 261.812C309.322 267.046 309.055 272.456 309.902 277.654C310.55 281.634 312.194 287.232 316.344 291.302C319.001 293.909 322.643 295.851 327.169 297.074C331.275 298.182 335.628 298.589 339.839 298.982C340.528 299.046 341.035 299.658 340.971 300.347C340.908 301.012 340.338 301.506 339.679 301.483Z" fill="#006B8D"/>
<path d="M343.391 300.261C343.326 302.138 341.16 303.585 338.554 303.494C335.947 303.403 333.887 301.81 333.953 299.933C334.018 298.056 336.184 296.61 338.79 296.701C341.396 296.791 343.456 298.385 343.391 300.261Z" fill="#006B8D"/>
<path d="M265.662 372.554C251.453 387.154 241.681 405.596 234.846 424.787C228.011 443.98 223.964 464.033 219.94 484.004C218.782 489.749 217.627 495.728 219.08 501.406C222.053 513.043 234.91 519.401 246.841 520.792C258.772 522.184 270.986 520.181 282.793 522.39C291.564 472.754 287.896 417.791 265.662 372.554Z" fill="#00A5D4"/>
<path d="M306.224 495.978C314.986 493.414 323.809 490.838 332.892 489.914C341.975 488.988 351.434 489.801 359.663 493.757C367.892 497.713 374.735 505.118 376.608 514.055C377.205 516.901 371.725 517.664 368.927 518.467C366.132 519.268 363.161 519.112 360.257 518.952C350.578 518.414 340.898 517.875 331.219 517.337C324.306 516.953 316.768 518.653 310.972 514.867C308.073 512.972 306.355 509.643 305.665 506.248C304.975 502.852 306.005 499.436 306.224 495.978Z" fill="#FFC985"/>
<path d="M246.085 481.123C271.377 479.684 296.747 479.644 322.043 481.004C324.357 492.87 327.466 505.855 326.432 517.902C306.146 523.39 285.024 523.541 264.618 518.518C250.683 515.088 245.912 495.474 246.085 481.123Z" fill="#00A5D4"/>
<path d="M308.052 480.754C299.282 476.15 288.927 473.411 279.074 472.393C280.659 457.942 280.997 443.355 280.082 428.844C283.773 440.527 286.441 452.519 286.286 464.768C294.849 467.884 303.303 472.978 308.052 480.754Z" fill="#00A5D4"/>
<path d="M558.748 511.827H269.906V514.218C269.906 517.432 272.512 520.039 275.726 520.039H552.928C556.142 520.039 558.748 517.432 558.748 514.218V511.827Z" fill="#DFE9FF"/>
<path d="M558.748 511.827H269.906V514.218C269.906 517.432 272.512 520.038 275.726 520.038H552.928C556.142 520.038 558.748 517.432 558.748 514.218V511.827Z" fill="#D0DBEF"/>
<path d="M370.532 514.216V511.825H269.906V514.216C269.906 517.432 272.512 520.038 275.726 520.038H364.712C367.926 520.038 370.532 517.432 370.532 514.216Z" fill="#D0DBEF"/>
<path d="M558.748 511.827H370.532L412.502 396.517C414.064 392.223 418.811 388.743 423.105 388.743H595.774C600.066 388.743 602.279 392.223 600.717 396.517L558.748 511.827Z" fill="white"/>
<path d="M499.127 450.285C496.698 456.962 489.315 462.373 482.64 462.373C475.964 462.373 472.52 456.962 474.95 450.285C477.38 443.609 484.763 438.197 491.439 438.197C498.114 438.197 501.556 443.609 499.127 450.285Z" fill="#C6CFE3"/>
<path d="M350.363 517.447H343.831C343.006 517.447 342.338 516.78 342.338 515.954C342.338 515.13 343.006 514.462 343.831 514.462H350.363C351.187 514.462 351.855 515.13 351.855 515.954C351.855 516.78 351.187 517.447 350.363 517.447Z" fill="#D0DBEF"/>
<path d="M337.112 517.447H330.579C329.755 517.447 329.086 516.78 329.086 515.954C329.086 515.13 329.755 514.462 330.579 514.462H337.112C337.937 514.462 338.605 515.13 338.605 515.954C338.605 516.78 337.937 517.447 337.112 517.447Z" fill="#D0DBEF"/>
<path d="M323.861 517.447H317.329C316.505 517.447 315.836 516.78 315.836 515.954C315.836 515.13 316.505 514.462 317.329 514.462H323.861C324.685 514.462 325.354 515.13 325.354 515.954C325.354 516.78 324.685 517.447 323.861 517.447Z" fill="#D0DBEF"/>
<path d="M243.927 504.337C232.979 504.337 224.07 495.429 224.07 484.479C224.07 473.531 232.979 464.624 243.927 464.624C254.875 464.624 263.784 473.531 263.784 484.479C263.784 495.429 254.875 504.337 243.927 504.337ZM243.927 470.83C236.4 470.83 230.277 476.952 230.277 484.479C230.277 492.006 236.4 498.131 243.927 498.131C251.454 498.131 257.578 492.006 257.578 484.479C257.578 476.952 251.454 470.83 243.927 470.83Z" fill="#D9D9D9"/>
<path d="M188.526 502.957C188.526 505.399 188.856 507.764 189.476 510.009C191.122 515.972 196.643 520.039 202.829 520.039H227.211C233.396 520.039 238.918 515.972 240.564 510.009C241.182 507.764 241.514 505.399 241.514 502.957V462.519H188.526V502.957Z" fill="white"/>
<path d="M227.307 462.519V502.957C227.307 505.399 226.974 507.764 226.354 510.009C224.71 515.972 219.189 520.039 213.002 520.039H227.209C233.395 520.039 238.919 515.972 240.564 510.009C241.184 507.764 241.514 505.399 241.514 502.957V462.519H227.307Z" fill="#E8E8E8"/>
<path d="M484.632 171.846C484.724 170.66 484.739 169.487 484.701 168.325L489.865 166.559C489.734 164.803 489.472 163.076 489.102 161.39L483.628 161.192C483.019 158.907 482.165 156.72 481.083 154.657L484.978 150.815C484.102 149.304 483.121 147.859 482.044 146.489L477.061 148.671C475.535 146.892 473.796 145.305 471.907 143.896L473.751 138.748C472.316 137.771 470.807 136.891 469.232 136.118L465.672 140.268C463.551 139.339 461.316 138.618 458.971 138.167L458.399 132.75C457.541 132.623 456.677 132.514 455.8 132.446C454.921 132.377 454.05 132.351 453.184 132.344L451.781 137.607C449.395 137.69 447.076 138.056 444.837 138.646L441.96 133.995C440.285 134.515 438.659 135.151 437.09 135.894L438.113 141.265C436.031 142.365 434.066 143.663 432.284 145.185L427.697 142.258C426.421 143.445 425.23 144.721 424.129 146.078L427.382 150.477C425.996 152.347 424.813 154.376 423.857 156.539L418.42 155.887C417.791 157.496 417.267 159.162 416.865 160.876L421.694 163.42C421.477 164.562 421.309 165.723 421.216 166.909C421.124 168.094 421.111 169.267 421.149 170.429L415.983 172.195C416.116 173.952 416.376 175.677 416.748 177.364L422.22 177.561C422.83 179.848 423.685 182.035 424.765 184.098L420.87 187.938C421.748 189.45 422.727 190.896 423.806 192.266L428.788 190.084C430.313 191.863 432.054 193.45 433.941 194.859L432.098 200.007C433.534 200.984 435.042 201.865 436.616 202.637L440.178 198.487C442.299 199.415 444.534 200.136 446.878 200.587L447.449 206.004C448.307 206.132 449.171 206.24 450.05 206.308C450.927 206.376 451.798 206.404 452.664 206.41L454.068 201.147C456.455 201.064 458.774 200.698 461.013 200.109L463.888 204.76C465.564 204.241 467.191 203.605 468.76 202.861L467.735 197.49C469.819 196.39 471.782 195.092 473.566 193.57L478.151 196.497C479.427 195.311 480.619 194.033 481.719 192.675L478.466 188.278C479.854 186.408 481.036 184.379 481.991 182.214L487.43 182.867C488.057 181.258 488.582 179.593 488.984 177.878L484.155 175.334C484.373 174.192 484.54 173.031 484.632 171.846ZM451.179 191.808C438.79 190.843 429.529 180.018 430.493 167.631C431.458 155.243 442.283 145.982 454.671 146.946C467.058 147.91 476.321 158.736 475.356 171.124C474.392 183.511 463.565 192.772 451.179 191.808Z" fill="white"/>
<path d="M219.96 305.754C219.883 304.76 219.742 303.787 219.561 302.829L223.608 300.696C223.271 299.258 222.832 297.862 222.305 296.513L217.747 297.059C216.945 295.245 215.952 293.544 214.79 291.976L217.517 288.289C216.595 287.15 215.595 286.079 214.525 285.085L210.68 287.538C209.185 286.263 207.537 285.174 205.792 284.252L206.649 279.749C205.335 279.125 203.97 278.591 202.566 278.156L200.153 282.056C198.277 281.562 196.332 281.255 194.331 281.184L193.154 276.773C192.428 276.778 191.698 276.8 190.962 276.857C190.226 276.914 189.501 277.005 188.782 277.113L188.303 281.654C186.337 282.033 184.463 282.637 182.684 283.416L179.699 279.937C178.377 280.583 177.113 281.322 175.909 282.142L177.454 286.458C175.872 287.639 174.412 288.97 173.133 290.461L168.955 288.632C168.052 289.781 167.229 290.993 166.494 292.261L169.761 295.481C168.855 297.211 168.138 299.044 167.626 300.961L163.038 301.127C162.725 302.541 162.508 303.989 162.398 305.461L166.727 306.942C166.695 307.917 166.707 308.9 166.785 309.894C166.862 310.889 167.002 311.862 167.184 312.82L163.137 314.953C163.473 316.391 163.912 317.787 164.44 319.135L168.998 318.589C169.8 320.403 170.793 322.104 171.955 323.674L169.227 327.361C170.149 328.499 171.15 329.569 172.22 330.564L176.065 328.111C177.56 329.386 179.207 330.475 180.953 331.397L180.095 335.901C181.411 336.525 182.774 337.057 184.18 337.493L186.591 333.594C188.468 334.087 190.413 334.393 192.414 334.463L193.59 338.877C194.317 338.872 195.047 338.848 195.783 338.791C196.519 338.734 197.244 338.644 197.962 338.536L198.442 333.994C200.408 333.615 202.282 333.012 204.059 332.234L207.046 335.713C208.366 335.065 209.632 334.328 210.834 333.508L209.291 329.191C210.872 328.01 212.331 326.679 213.611 325.188L217.79 327.017C218.693 325.867 219.515 324.656 220.25 323.388L216.985 320.168C217.89 318.438 218.608 316.604 219.119 314.687L223.707 314.521C224.018 313.108 224.236 311.661 224.347 310.188L220.019 308.707C220.049 307.733 220.038 306.749 219.96 305.754ZM194.837 326.633C184.448 327.442 175.372 319.677 174.564 309.288C173.755 298.901 181.52 289.824 191.908 289.015C202.295 288.206 211.371 295.973 212.18 306.36C212.989 316.748 205.224 325.824 194.837 326.633Z" fill="white"/>
<path d="M600.649 349.471C600.593 348.745 600.491 348.032 600.357 347.332L603.319 345.772C603.072 344.721 602.75 343.7 602.366 342.712L599.032 343.113C598.445 341.785 597.718 340.541 596.867 339.394L598.863 336.697C598.187 335.864 597.457 335.08 596.674 334.353L593.862 336.148C592.769 335.214 591.562 334.418 590.286 333.744L590.913 330.449C589.95 329.993 588.954 329.603 587.925 329.284L586.16 332.136C584.788 331.775 583.367 331.551 581.903 331.5L581.042 328.271C580.51 328.276 579.977 328.293 579.438 328.335C578.9 328.377 578.37 328.443 577.844 328.52L577.493 331.844C576.055 332.12 574.684 332.561 573.385 333.131L571.199 330.587C570.232 331.061 569.308 331.6 568.427 332.199L569.557 335.357C568.402 336.221 567.331 337.194 566.397 338.286L563.341 336.948C562.68 337.787 562.079 338.675 561.54 339.602L563.929 341.958C563.267 343.223 562.742 344.564 562.368 345.967L559.011 346.087C558.784 347.123 558.625 348.181 558.544 349.258L561.711 350.34C561.687 351.053 561.696 351.773 561.752 352.499C561.809 353.228 561.912 353.938 562.046 354.639L559.085 356.2C559.331 357.253 559.652 358.273 560.037 359.26L563.371 358.861C563.958 360.187 564.684 361.433 565.535 362.58L563.539 365.277C564.215 366.11 564.946 366.892 565.729 367.62L568.541 365.826C569.634 366.757 570.841 367.555 572.116 368.23L571.489 371.523C572.451 371.979 573.448 372.37 574.477 372.689L576.243 369.836C577.614 370.196 579.037 370.423 580.5 370.473L581.361 373.701C581.893 373.696 582.427 373.68 582.965 373.639C583.504 373.597 584.033 373.529 584.56 373.452L584.91 370.13C586.348 369.853 587.718 369.409 589.018 368.841L591.203 371.387C592.17 370.913 593.094 370.372 593.974 369.773L592.845 366.616C594.002 365.752 595.07 364.777 596.006 363.688L599.062 365.025C599.723 364.185 600.323 363.298 600.862 362.371L598.473 360.015C599.135 358.751 599.661 357.408 600.036 356.007L603.392 355.885C603.618 354.851 603.778 353.793 603.859 352.714L600.692 351.63C600.716 350.918 600.706 350.2 600.649 349.471ZM582.273 364.744C574.675 365.336 568.036 359.656 567.444 352.056C566.853 344.459 572.533 337.821 580.131 337.229C587.729 336.638 594.368 342.317 594.959 349.914C595.551 357.514 589.871 364.153 582.273 364.744Z" fill="white"/>
<g opacity="0.01">
<path d="M137.552 231.974C137.552 234.554 135.46 236.646 132.88 236.646C130.299 236.646 128.205 234.554 128.205 231.974C128.205 229.394 130.299 227.302 132.88 227.302C135.46 227.302 137.552 229.394 137.552 231.974Z" fill="#BCD7FF"/>
<path d="M128.205 482.996C128.205 484.232 127.205 485.231 125.97 485.231C124.736 485.231 123.735 484.232 123.735 482.996C123.735 481.762 124.736 480.764 125.97 480.764C127.205 480.764 128.205 481.762 128.205 482.996Z" fill="#BCD7FF"/>
<path d="M257.576 91.5064C257.576 93.2788 256.139 94.7175 254.365 94.7175C252.593 94.7175 251.154 93.2788 251.154 91.5064C251.154 89.7327 252.593 88.2954 254.365 88.2954C256.139 88.2954 257.576 89.7327 257.576 91.5064Z" fill="#BCD7FF"/>
<path d="M455.214 99.9262C455.214 100.965 454.372 101.807 453.332 101.807C452.294 101.807 451.453 100.965 451.453 99.9262C451.453 98.8878 452.294 98.0454 453.332 98.0454C454.372 98.0454 455.214 98.8878 455.214 99.9262Z" fill="#BCD7FF"/>
<path d="M639.474 187.721C639.474 189.532 638.006 190.998 636.196 190.998C634.385 190.998 632.916 189.532 632.916 187.721C632.916 185.911 634.385 184.443 636.196 184.443C638.006 184.443 639.474 185.911 639.474 187.721Z" fill="#BCD7FF"/>
<path d="M672.609 310.411C672.609 311.84 671.451 312.998 670.023 312.998C668.593 312.998 667.435 311.84 667.435 310.411C667.435 308.982 668.593 307.824 670.023 307.824C671.451 307.824 672.609 308.982 672.609 310.411Z" fill="#BCD7FF"/>
<path d="M652.055 470.541C652.055 472.477 650.486 474.045 648.55 474.045C646.613 474.045 645.044 472.477 645.044 470.541C645.044 468.605 646.613 467.037 648.55 467.037C650.486 467.037 652.055 468.605 652.055 470.541Z" fill="#BCD7FF"/>
</g>
<g opacity="0.992891">
<path d="M101.535 347.995C101.535 349.645 100.196 350.984 98.5446 350.984C96.8932 350.984 95.5546 349.645 95.5546 347.995C95.5546 346.344 96.8932 345.007 98.5446 345.007C100.196 345.007 101.535 346.344 101.535 347.995Z" fill="#BCD7FF"/>
<path d="M139.097 196.328C139.097 197.348 138.27 198.175 137.251 198.175C136.23 198.175 135.405 197.348 135.405 196.328C135.405 195.309 136.23 194.483 137.251 194.483C138.27 194.483 139.097 195.309 139.097 196.328Z" fill="#BCD7FF"/>
<path d="M511.638 119.083C511.638 121.659 509.549 123.746 506.973 123.746C504.397 123.746 502.308 121.659 502.308 119.083C502.308 116.506 504.397 114.419 506.973 114.419C509.549 114.419 511.638 116.506 511.638 119.083Z" fill="#BCD7FF"/>
<path d="M558.747 131.037C558.747 132.711 557.389 134.068 555.715 134.068C554.041 134.068 552.686 132.711 552.686 131.037C552.686 129.364 554.041 128.007 555.715 128.007C557.389 128.007 558.747 129.364 558.747 131.037Z" fill="#BCD7FF"/>
<path d="M636.694 269.224C636.694 272.071 634.386 274.378 631.541 274.378C628.694 274.378 626.385 272.071 626.385 269.224C626.385 266.378 628.694 264.07 631.541 264.07C634.386 264.07 636.694 266.378 636.694 269.224Z" fill="#BCD7FF"/>
<path d="M626.387 314.255C626.387 316.379 624.664 318.102 622.54 318.102C620.418 318.102 618.697 316.379 618.697 314.255C618.697 312.132 620.418 310.41 622.54 310.41C624.664 310.41 626.387 312.132 626.387 314.255Z" fill="#BCD7FF"/>
<path d="M625.002 496.182C625.002 498.891 622.806 501.089 620.098 501.089C617.388 501.089 615.191 498.891 615.191 496.182C615.191 493.474 617.388 491.278 620.098 491.278C622.806 491.278 625.002 493.474 625.002 496.182Z" fill="#BCD7FF"/>
</g>
<g opacity="0.0157204">
<path d="M667.435 233.123C668.124 237.995 671.954 241.824 676.826 242.514C671.954 243.203 668.124 247.033 667.435 251.905C666.745 247.033 662.916 243.203 658.044 242.514C662.916 241.824 666.745 237.995 667.435 233.123Z" fill="#BCD7FF"/>
<path d="M672.609 430.021C673.3 434.893 677.128 438.722 682 439.412C677.128 440.101 673.3 443.931 672.609 448.803C671.919 443.931 668.091 440.101 663.218 439.412C668.091 438.722 671.919 434.893 672.609 430.021Z" fill="#BCD7FF"/>
<path d="M414.598 80.6951C415.156 84.6387 418.257 87.7385 422.202 88.2973C418.257 88.8561 415.156 91.9559 414.598 95.9009C414.041 91.9559 410.94 88.8561 406.995 88.2973C410.94 87.7385 414.041 84.6387 414.598 80.6951Z" fill="#BCD7FF"/>
</g>
<g opacity="0.98428">
<path d="M170.984 111.629C171.875 117.916 176.816 122.858 183.104 123.748C176.816 124.639 171.875 129.58 170.984 135.868C170.093 129.58 165.153 124.639 158.866 123.748C165.153 122.858 170.093 117.916 170.984 111.629Z" fill="#BCD7FF"/>
<path d="M101.535 445.288C102.225 450.16 106.054 453.988 110.926 454.679C106.054 455.368 102.225 459.196 101.535 464.07C100.845 459.196 97.017 455.368 92.1434 454.679C97.017 453.988 100.845 450.16 101.535 445.288Z" fill="#BCD7FF"/>
<path d="M101.535 259.097C102.093 263.041 105.193 266.14 109.138 266.699C105.193 267.258 102.093 270.358 101.535 274.303C100.977 270.358 97.876 267.258 93.9324 266.699C97.876 266.14 100.977 263.041 101.535 259.097Z" fill="#BCD7FF"/>
<path d="M623.205 114.418C624.094 120.702 629.032 125.64 635.316 126.529C629.032 127.419 624.094 132.356 623.205 138.641C622.314 132.356 617.378 127.419 611.093 126.529C617.378 125.64 622.314 120.702 623.205 114.418Z" fill="#BCD7FF"/>
</g>
<path d="M514.012 290.551H465.646C457.807 290.551 451.453 296.908 451.453 304.746V327.861C451.453 335.701 457.807 342.055 465.646 342.055H467.271L463.983 346.705C462.905 348.226 464.5 350.204 466.215 349.475L481.639 342.941C483.017 342.357 484.498 342.055 485.995 342.055H514.012C521.852 342.055 528.206 335.701 528.206 327.861V304.746C528.206 296.908 521.852 290.551 514.012 290.551Z" fill="white"/>
<path d="M518.476 307.799H461.183C459.825 307.799 458.721 306.697 458.721 305.337C458.721 303.978 459.825 302.875 461.183 302.875H518.476C519.836 302.875 520.937 303.978 520.937 305.337C520.937 306.697 519.836 307.799 518.476 307.799Z" fill="#EEEEEE"/>
<path d="M518.476 318.763H461.183C459.825 318.763 458.721 317.661 458.721 316.302C458.721 314.942 459.825 313.84 461.183 313.84H518.476C519.836 313.84 520.937 314.942 520.937 316.302C520.937 317.661 519.836 318.763 518.476 318.763Z" fill="#EEEEEE"/>
<path d="M493.391 329.73H461.182C459.824 329.73 458.723 328.628 458.723 327.268C458.723 325.909 459.824 324.806 461.182 324.806H493.391C494.75 324.806 495.851 325.909 495.851 327.268C495.851 328.628 494.75 329.73 493.391 329.73Z" fill="#EEEEEE"/>
<path d="M590.425 254.978H544.381C528.766 254.978 516.107 242.319 516.107 226.705V180.663C516.107 165.049 528.766 152.39 544.381 152.39H590.425C606.039 152.39 618.698 165.049 618.698 180.663V226.705C618.698 242.319 606.039 254.978 590.425 254.978Z" fill="#7391FF"/>
<path d="M540.195 229.824C526.97 214.827 528.413 191.867 543.41 178.644C558.409 165.419 581.368 166.86 594.593 181.857C595.651 183.056 595.536 184.885 594.336 185.943C593.138 187.001 591.309 186.885 590.251 185.687C579.137 173.083 559.843 171.871 547.24 182.985C534.636 194.097 533.424 213.392 544.537 225.996C555.651 238.598 574.945 239.813 587.549 228.698C595.835 221.392 599.522 210.139 597.17 199.333C596.83 197.771 597.821 196.229 599.383 195.889C600.944 195.549 602.487 196.539 602.828 198.1C605.625 210.958 601.238 224.346 591.377 233.039C576.379 246.264 553.42 244.823 540.195 229.824Z" fill="white"/>
<path d="M574.655 186.857C574.254 186.403 573.991 185.818 573.941 185.168C573.818 183.574 575.009 182.181 576.602 182.059L589.285 181.077L588.303 168.397C588.181 166.803 589.374 165.412 590.967 165.288C592.561 165.164 593.953 166.355 594.076 167.95L595.28 183.517C595.34 184.283 595.093 185.041 594.593 185.623C594.093 186.207 593.383 186.568 592.617 186.627L577.051 187.83C576.109 187.903 575.236 187.516 574.655 186.857Z" fill="white"/>
<path d="M551.334 202.935C551.334 201.743 550.817 201.148 549.784 201.148C549.203 201.148 548.779 201.35 548.511 201.757C548.241 202.165 548.091 202.797 548.062 203.655H544.42C544.507 201.78 545.074 200.37 546.121 199.425C547.168 198.48 548.49 198.008 550.088 198.008C551.762 198.008 553.024 198.431 553.873 199.273C554.723 200.117 555.149 201.212 555.149 202.564C555.149 204.062 554.574 205.526 553.426 206.957C552.278 208.389 550.903 209.6 549.304 210.588H555.387V213.596H544.4V210.808C549.022 207.508 551.334 204.882 551.334 202.935Z" fill="white"/>
<path d="M556.958 210.939V207.821L564 198.161H568.011V207.69H569.866V210.939H568.011V213.771H564.24V210.939H556.958ZM564.546 202.477L560.753 207.69H564.546V202.477Z" fill="white"/>
<path d="M579.678 193.059L573.812 217.871H570.215L576.079 193.059H579.678Z" fill="white"/>
<path d="M589.862 200.973L584.344 213.773H580.486L586.068 201.41H579.525V198.204H589.862V200.973Z" fill="white"/>
<path d="M240.035 230.829H166.335C153.219 230.829 142.587 220.198 142.587 207.083V168.409C142.587 155.294 153.219 144.663 166.335 144.663H240.035C253.15 144.663 263.783 155.294 263.783 168.409V207.083C263.783 220.198 253.15 230.829 240.035 230.829Z" fill="#7391FF"/>
<path d="M177.899 172.357C177.899 177.931 173.379 182.45 167.805 182.45C162.23 182.45 157.712 177.931 157.712 172.357C157.712 166.783 162.23 162.264 167.805 162.264C173.379 162.264 177.899 166.783 177.899 172.357Z" fill="white"/>
<path d="M239.721 168.472H188.656C186.941 168.472 185.549 167.082 185.549 165.368C185.549 163.654 186.941 162.264 188.656 162.264H239.721C241.435 162.264 242.825 163.654 242.825 165.368C242.825 167.082 241.435 168.472 239.721 168.472Z" fill="white"/>
<path d="M239.721 182.583H188.656C186.941 182.583 185.549 181.193 185.549 179.479C185.549 177.764 186.941 176.375 188.656 176.375H239.721C241.435 176.375 242.825 177.764 242.825 179.479C242.825 181.193 241.435 182.583 239.721 182.583Z" fill="white"/>
<path d="M177.899 203.001C177.899 208.575 173.379 213.094 167.805 213.094C162.23 213.094 157.712 208.575 157.712 203.001C157.712 197.427 162.23 192.907 167.805 192.907C173.379 192.907 177.899 197.427 177.899 203.001Z" fill="white"/>
<path d="M239.721 199.117H188.656C186.941 199.117 185.549 197.727 185.549 196.013C185.549 194.297 186.941 192.909 188.656 192.909H239.721C241.435 192.909 242.825 194.297 242.825 196.013C242.825 197.727 241.435 199.117 239.721 199.117Z" fill="white"/>
<path d="M239.721 213.227H188.656C186.941 213.227 185.549 211.837 185.549 210.123C185.549 208.409 186.941 207.019 188.656 207.019H239.721C241.435 207.019 242.825 208.409 242.825 210.123C242.825 211.837 241.435 213.227 239.721 213.227Z" fill="white"/>
<path d="M183.477 436.192H147.433C135.209 436.192 125.3 426.284 125.3 414.06V378.016C125.3 365.793 135.209 355.884 147.433 355.884H183.477C195.701 355.884 205.611 365.793 205.611 378.016V414.06C205.611 426.284 195.701 436.192 183.477 436.192Z" fill="#7391FF"/>
<path d="M176.856 377.69C179.319 379.822 180.551 382.881 180.551 386.869C180.551 390.585 179.349 393.498 176.944 395.61C174.539 397.723 171.321 398.818 167.294 398.896V404.116H157.85V392.442H161.78C164.596 392.442 166.785 392.042 168.349 391.241C169.913 390.439 170.695 389.002 170.695 386.928C170.695 385.599 170.324 384.563 169.582 383.82C168.838 383.077 167.842 382.705 166.589 382.705C165.183 382.705 164.078 383.126 163.275 383.966C162.473 384.808 162.073 385.873 162.073 387.163H152.629C152.55 384.818 153.049 382.676 154.125 380.739C155.199 378.804 156.833 377.279 159.022 376.165C161.213 375.05 163.852 374.492 166.942 374.492C171.087 374.492 174.392 375.559 176.856 377.69ZM167.822 418.957H157.38V408.925H167.822V418.957Z" fill="white"/>
<path d="M384.006 151.788H337.963C322.349 151.788 309.688 139.13 309.688 123.514V105.274C309.688 89.6578 322.349 77 337.963 77H384.006C399.621 77 412.28 89.6578 412.28 105.274V123.514C412.28 139.13 399.621 151.788 384.006 151.788Z" fill="#7391FF"/>
<path d="M389.231 114.394C389.231 118.539 385.871 121.899 381.726 121.899C377.581 121.899 374.221 118.539 374.221 114.394C374.221 110.249 377.581 106.889 381.726 106.889C385.871 106.889 389.231 110.249 389.231 114.394Z" fill="white"/>
<path d="M368.489 114.394C368.489 118.539 365.129 121.899 360.984 121.899C356.839 121.899 353.479 118.539 353.479 114.394C353.479 110.249 356.839 106.889 360.984 106.889C365.129 106.889 368.489 110.249 368.489 114.394Z" fill="white"/>
<path d="M347.748 114.394C347.748 118.539 344.388 121.899 340.243 121.899C336.098 121.899 332.738 118.539 332.738 114.394C332.738 110.249 336.098 106.889 340.243 106.889C344.388 106.889 347.748 110.249 347.748 114.394Z" fill="white"/>
</svg>
