<svg xmlns="http://www.w3.org/2000/svg" viewBox="0 0 500 500"><g id="freepik--background-simple--inject-84"><path d="M437,209.67c-8-30.66-21.31-59.24-35.23-78.85C368.25,83.7,290.45,63,236.7,82.7c-45.8,16.82-61.84,67.68-101.84,92-36.81,22.4-70.21,40.67-83.09,83.38-27.19,90.23,80.35,162.16,160.71,139.27,25.36-7.22,46.8-22.42,73.85-22.51,54.88-.19,74.21,7.34,118.61-22.31C448.69,323.36,451,263.35,437,209.67Z" style="fill:#407BFF"></path><path d="M437,209.67c-8-30.66-21.31-59.24-35.23-78.85C368.25,83.7,290.45,63,236.7,82.7c-45.8,16.82-61.84,67.68-101.84,92-36.81,22.4-70.21,40.67-83.09,83.38-27.19,90.23,80.35,162.16,160.71,139.27,25.36-7.22,46.8-22.42,73.85-22.51,54.88-.19,74.21,7.34,118.61-22.31C448.69,323.36,451,263.35,437,209.67Z" style="fill:#fff;opacity:0.8"></path></g><g id="freepik--Clouds--inject-84"><path d="M330.37,199.49c-4.17-2.27-6.06-.37-7.58-2.27s4.17-6.83-7.21-11.76c0,0-.76-10.62-16.31-11s-11.37,10.62-15.54,13.28-5.31-1.52-9.49,1.14-2.27,8-5.69,8.72-8-3.41-12.13-.76-4.17,4.93-6.07,4.93-5.69-1.52-8,0-4.94,3.41-4.94,3.41h96S334.55,201.77,330.37,199.49Z" style="fill:#407BFF"></path><path d="M300.4,142.32c-5.9-3.22-8.57-.54-10.72-3.22s5.9-9.64-10.18-16.6c0,0-1.07-15-23-15.54s-16.07,15-22,18.75-7.5-2.14-13.39,1.61-3.21,11.25-8,12.32-11.25-4.82-17.14-1.07-5.89,7-8.57,7-8-2.14-11.25,0-7,4.82-7,4.82H304.68S306.29,145.53,300.4,142.32Z" style="fill:#407BFF"></path><path d="M330.37,199.49c-4.17-2.27-6.06-.37-7.58-2.27s4.17-6.83-7.21-11.76c0,0-.76-10.62-16.31-11s-11.37,10.62-15.54,13.28-5.31-1.52-9.49,1.14-2.27,8-5.69,8.72-8-3.41-12.13-.76-4.17,4.93-6.07,4.93-5.69-1.52-8,0-4.94,3.41-4.94,3.41h96S334.55,201.77,330.37,199.49Z" style="fill:#fff;opacity:0.4"></path><path d="M300.4,142.32c-5.9-3.22-8.57-.54-10.72-3.22s5.9-9.64-10.18-16.6c0,0-1.07-15-23-15.54s-16.07,15-22,18.75-7.5-2.14-13.39,1.61-3.21,11.25-8,12.32-11.25-4.82-17.14-1.07-5.89,7-8.57,7-8-2.14-11.25,0-7,4.82-7,4.82H304.68S306.29,145.53,300.4,142.32Z" style="fill:#fff;opacity:0.4"></path></g><g id="freepik--Trees--inject-84"><path d="M377.68,376H428.8c-1-6.25-5-5.15-5.53-14.84-.26-4.88,4.25-10.92,3.86-17.33-.32-5.28-5.53-10.7-5.93-16.74-.37-5.45,4.08-11.5,3.65-17.37-.41-5.56-5.69-10.89-6.16-16.66s3.9-11.74,3.39-17.43-5.89-10.93-6.46-16.54c-.58-5.77,3.63-12,3-17.51-.68-5.86-6.21-10.92-7-16.32-.84-6,3.08-12.44,2.16-17.63-1.12-6.36-7-11-8.28-15.66-2.33-8.74-2-17.17-4.78-17.71-2.92-.59-3.59,7.67-5.81,16.9-1.11,4.64-6.9,9.34-7.85,15.71-.77,5.15,3.32,11.42,2.65,17.41-.6,5.36-6,10.51-6.52,16.34-.49,5.49,3.89,11.53,3.46,17.27-.42,5.57-5.65,10.88-6,16.54S384.8,286,384.5,291.6s-5.45,11.14-5.72,16.65c-.28,5.83,4.32,11.71,4.1,17.12-.25,6-5.31,11.48-5.5,16.72-.23,6.36,4.44,12.22,4.3,17.06-.31,10.51-5.12,8.34-5.3,16.79Z" style="fill:#407BFF"></path><path d="M377.68,376H428.8c-1-6.25-5-5.15-5.53-14.84-.26-4.88,4.25-10.92,3.86-17.33-.32-5.28-5.53-10.7-5.93-16.74-.37-5.45,4.08-11.5,3.65-17.37-.41-5.56-5.69-10.89-6.16-16.66s3.9-11.74,3.39-17.43-5.89-10.93-6.46-16.54c-.58-5.77,3.63-12,3-17.51-.68-5.86-6.21-10.92-7-16.32-.84-6,3.08-12.44,2.16-17.63-1.12-6.36-7-11-8.28-15.66-2.33-8.74-2-17.17-4.78-17.71-2.92-.59-3.59,7.67-5.81,16.9-1.11,4.64-6.9,9.34-7.85,15.71-.77,5.15,3.32,11.42,2.65,17.41-.6,5.36-6,10.51-6.52,16.34-.49,5.49,3.89,11.53,3.46,17.27-.42,5.57-5.65,10.88-6,16.54S384.8,286,384.5,291.6s-5.45,11.14-5.72,16.65c-.28,5.83,4.32,11.71,4.1,17.12-.25,6-5.31,11.48-5.5,16.72-.23,6.36,4.44,12.22,4.3,17.06-.31,10.51-5.12,8.34-5.3,16.79Z" style="fill:#fff;opacity:0.4"></path><line x1="399.63" y1="191.05" x2="399.63" y2="373.63" style="fill:none;stroke:#263238;stroke-miterlimit:10"></line><polyline points="407.61 210.19 399.29 217.38 392.48 208.3" style="fill:none;stroke:#263238;stroke-miterlimit:10"></polyline><polyline points="407.61 241.97 399.29 249.16 392.48 240.08" style="fill:none;stroke:#263238;stroke-miterlimit:10"></polyline><polyline points="407.61 271.86 399.29 279.05 392.48 269.96" style="fill:none;stroke:#263238;stroke-miterlimit:10"></polyline><polyline points="407.61 307.42 399.29 314.61 392.48 305.53" style="fill:none;stroke:#263238;stroke-miterlimit:10"></polyline><polyline points="407.61 343.36 399.29 350.55 392.48 341.47" style="fill:none;stroke:#263238;stroke-miterlimit:10"></polyline><path d="M342.86,376h39.46c-.76-4.83-3.86-4-4.27-11.46-.21-3.76,3.28-8.43,3-13.37-.25-4.08-4.27-8.26-4.58-12.92-.28-4.21,3.15-8.88,2.81-13.41-.31-4.29-4.38-8.41-4.74-12.86s3-9.07,2.61-13.46-4.55-8.43-5-12.77,2.8-9.25,2.31-13.51c-.53-4.52-4.8-8.43-5.38-12.6-.65-4.64,2.38-9.6,1.67-13.61-.87-4.91-5.44-8.46-6.4-12.08-1.79-6.75-1.57-13.26-3.68-13.68-2.26-.45-2.77,5.92-4.49,13.05-.86,3.58-5.32,7.21-6.06,12.12-.59,4,2.57,8.82,2.05,13.44-.47,4.14-4.63,8.12-5,12.62-.38,4.23,3,8.9,2.66,13.33s-4.36,8.4-4.64,12.77,3.21,9,3,13.26-4.21,8.6-4.41,12.85c-.22,4.5,3.33,9,3.16,13.21-.19,4.63-4.1,8.87-4.25,12.91-.17,4.91,3.43,9.44,3.32,13.17-.24,8.12-3.95,6.44-4.09,13Z" style="fill:#407BFF"></path><path d="M342.86,376h39.46c-.76-4.83-3.86-4-4.27-11.46-.21-3.76,3.28-8.43,3-13.37-.25-4.08-4.27-8.26-4.58-12.92-.28-4.21,3.15-8.88,2.81-13.41-.31-4.29-4.38-8.41-4.74-12.86s3-9.07,2.61-13.46-4.55-8.43-5-12.77,2.8-9.25,2.31-13.51c-.53-4.52-4.8-8.43-5.38-12.6-.65-4.64,2.38-9.6,1.67-13.61-.87-4.91-5.44-8.46-6.4-12.08-1.79-6.75-1.57-13.26-3.68-13.68-2.26-.45-2.77,5.92-4.49,13.05-.86,3.58-5.32,7.21-6.06,12.12-.59,4,2.57,8.82,2.05,13.44-.47,4.14-4.63,8.12-5,12.62-.38,4.23,3,8.9,2.66,13.33s-4.36,8.4-4.64,12.77,3.21,9,3,13.26-4.21,8.6-4.41,12.85c-.22,4.5,3.33,9,3.16,13.21-.19,4.63-4.1,8.87-4.25,12.91-.17,4.91,3.43,9.44,3.32,13.17-.24,8.12-3.95,6.44-4.09,13Z" style="fill:#fff;opacity:0.4"></path><line x1="359.8" y1="233.23" x2="359.8" y2="374.17" style="fill:none;stroke:#263238;stroke-miterlimit:10"></line><polyline points="365.96 248.01 359.54 253.56 354.28 246.55" style="fill:none;stroke:#263238;stroke-miterlimit:10"></polyline><polyline points="365.96 272.54 359.54 278.09 354.28 271.08" style="fill:none;stroke:#263238;stroke-miterlimit:10"></polyline><polyline points="365.96 295.61 359.54 301.16 354.28 294.15" style="fill:none;stroke:#263238;stroke-miterlimit:10"></polyline><polyline points="365.96 323.06 359.54 328.61 354.28 321.6" style="fill:none;stroke:#263238;stroke-miterlimit:10"></polyline><polyline points="365.96 350.8 359.54 356.35 354.28 349.34" style="fill:none;stroke:#263238;stroke-miterlimit:10"></polyline><path d="M100.69,355.62h39.46c-.75-4.82-3.85-4-4.26-11.45-.21-3.77,3.27-8.43,3-13.38-.25-4.08-4.26-8.26-4.58-12.92-.28-4.21,3.15-8.88,2.82-13.41-.32-4.29-4.39-8.4-4.75-12.86s3-9.06,2.61-13.46-4.54-8.43-5-12.76,2.8-9.25,2.3-13.52c-.53-4.52-4.8-8.43-5.38-12.6-.64-4.64,2.38-9.6,1.68-13.6-.87-4.91-5.44-8.47-6.4-12.09-1.79-6.75-1.57-13.25-3.69-13.68S115.72,205.82,114,213c-.86,3.58-5.33,7.2-6.06,12.12-.6,4,2.56,8.81,2,13.44-.46,4.14-4.62,8.12-5,12.62-.38,4.23,3,8.9,2.67,13.32s-4.36,8.4-4.64,12.77,3.2,8.95,3,13.26-4.21,8.6-4.41,12.86c-.21,4.49,3.34,9,3.16,13.21-.19,4.62-4.1,8.86-4.24,12.9-.18,4.91,3.43,9.44,3.32,13.18-.24,8.11-4,6.43-4.09,13Z" style="fill:#407BFF"></path><path d="M100.69,355.62h39.46c-.75-4.82-3.85-4-4.26-11.45-.21-3.77,3.27-8.43,3-13.38-.25-4.08-4.26-8.26-4.58-12.92-.28-4.21,3.15-8.88,2.82-13.41-.32-4.29-4.39-8.4-4.75-12.86s3-9.06,2.61-13.46-4.54-8.43-5-12.76,2.8-9.25,2.3-13.52c-.53-4.52-4.8-8.43-5.38-12.6-.64-4.64,2.38-9.6,1.68-13.6-.87-4.91-5.44-8.47-6.4-12.09-1.79-6.75-1.57-13.25-3.69-13.68S115.72,205.82,114,213c-.86,3.58-5.33,7.2-6.06,12.12-.6,4,2.56,8.81,2,13.44-.46,4.14-4.62,8.12-5,12.62-.38,4.23,3,8.9,2.67,13.32s-4.36,8.4-4.64,12.77,3.2,8.95,3,13.26-4.21,8.6-4.41,12.86c-.21,4.49,3.34,9,3.16,13.21-.19,4.62-4.1,8.86-4.24,12.9-.18,4.91,3.43,9.44,3.32,13.18-.24,8.11-4,6.43-4.09,13Z" style="fill:#fff;opacity:0.4"></path><line x1="117.63" y1="212.87" x2="117.63" y2="353.8" style="fill:none;stroke:#263238;stroke-miterlimit:10"></line><polyline points="123.79 227.64 117.37 233.19 112.11 226.18" style="fill:none;stroke:#263238;stroke-miterlimit:10"></polyline><polyline points="123.79 252.17 117.37 257.72 112.11 250.71" style="fill:none;stroke:#263238;stroke-miterlimit:10"></polyline><polyline points="123.79 275.24 117.37 280.79 112.11 273.78" style="fill:none;stroke:#263238;stroke-miterlimit:10"></polyline><polyline points="123.79 302.69 117.37 308.24 112.11 301.23" style="fill:none;stroke:#263238;stroke-miterlimit:10"></polyline><polyline points="123.79 330.44 117.37 335.99 112.11 328.98" style="fill:none;stroke:#263238;stroke-miterlimit:10"></polyline></g><g id="freepik--drone-2--inject-84"><rect x="285.67" y="164.03" width="8.45" height="8.49" style="fill:#fff;stroke:#263238;stroke-linecap:round;stroke-linejoin:round"></rect><ellipse cx="289.79" cy="163.19" rx="17.03" ry="1.51" style="fill:none;stroke:#263238;stroke-linecap:round;stroke-linejoin:round"></ellipse><rect x="361.43" y="164.03" width="8.45" height="8.49" style="fill:#fff;stroke:#263238;stroke-linecap:round;stroke-linejoin:round"></rect><ellipse cx="365.55" cy="163.19" rx="17.03" ry="1.51" style="fill:none;stroke:#263238;stroke-linecap:round;stroke-linejoin:round"></ellipse><path d="M316.32,204.59h-5.56a2.31,2.31,0,0,1-2.32-2.31V175.63a2.32,2.32,0,0,1,4.64,0V200H315V177.72c0-1.28,0-2.32,1.29-2.32a2.32,2.32,0,0,1,2.32,2.32v24.56A2.31,2.31,0,0,1,316.32,204.59Z" style="fill:#fff;stroke:#263238;stroke-linecap:round;stroke-linejoin:round"></path><path d="M342,204.59h5.56a2.3,2.3,0,0,0,2.31-2.31V175.63a2.32,2.32,0,0,0-4.63,0V200H343V177.72c0-1.28.34-2.32-.94-2.32a2.32,2.32,0,0,0-2.32,2.32v24.56A2.31,2.31,0,0,0,342,204.59Z" style="fill:#fff;stroke:#263238;stroke-linecap:round;stroke-linejoin:round"></path><rect x="325.59" y="183.28" width="6.02" height="8.11" style="fill:#fff;stroke:#263238;stroke-linecap:round;stroke-linejoin:round"></rect><rect x="323.04" y="189.53" width="11.12" height="11.82" rx="2.87" style="fill:#fff;stroke:#263238;stroke-linecap:round;stroke-linejoin:round"></rect><path d="M365.4,169.05a245.08,245.08,0,0,0-36.58-3.36h-.64a245.08,245.08,0,0,0-36.58,3.36c-1.54.26-7.27.16-6.77,3.06.36,2.11,4.24,2.16,5.78,2.28,7.36.55,14.41,1.21,21.11,4.64,5.31,2.72,10.22,7.9,16.4,8.42v.06l.38,0,.38,0v-.06c6.19-.52,11.1-5.7,16.4-8.42,6.7-3.43,13.75-4.09,21.11-4.64,1.54-.12,5.42-.17,5.79-2.28C372.68,169.21,366.94,169.31,365.4,169.05Z" style="fill:#fff;stroke:#263238;stroke-linecap:round;stroke-linejoin:round"></path><path d="M371.54,173.46c-1.47-1.21-5-1.2-6.14-1.39a243.78,243.78,0,0,0-36.58-3.37h-.64a243.78,243.78,0,0,0-36.58,3.37c-1,.17-3.85.18-5.52,1" style="fill:none;stroke:#263238;stroke-linecap:round;stroke-linejoin:round"></path><path d="M332.19,195.44A3.59,3.59,0,1,0,328.6,199,3.59,3.59,0,0,0,332.19,195.44Z" style="fill:#263238;stroke:#263238;stroke-linecap:round;stroke-linejoin:round"></path><polyline points="313.08 199.96 313.08 201.34 314.25 201.34" style="fill:none;stroke:#263238;stroke-linecap:round;stroke-linejoin:round"></polyline><polyline points="345.28 199.96 345.28 201.49 343.91 201.49" style="fill:none;stroke:#263238;stroke-linecap:round;stroke-linejoin:round"></polyline></g><g id="freepik--character-2--inject-84"><ellipse cx="153.67" cy="401.67" rx="35.33" ry="11.33" style="fill:#407BFF"></ellipse><ellipse cx="153.67" cy="401.67" rx="35.33" ry="11.33" style="fill:#fff;opacity:0.6000000000000001"></ellipse><path d="M170.69,222.22s3.24.46,6.49,7.11,9,30.45,9,34.47a10.17,10.17,0,0,1-6.49,9.27c-3.86,1.55-6.18-1.39-7.11-3.86s-1.24-24.89-1.24-24.89Z" style="fill:#fff;stroke:#263238;stroke-linecap:round;stroke-linejoin:round"></path><path d="M182.45,245.88c-1.75-6.75-3.77-13.48-5.27-16.55-3.25-6.65-6.49-7.11-6.49-7.11l.61,22.1s0,1.8.09,4.43C172.78,248,177.66,245.68,182.45,245.88Z" style="fill:#fff;stroke:#263238;stroke-linecap:round;stroke-linejoin:round"></path><path d="M133.45,343s-.89,10.72-.89,15-2.45,13.62-2.45,19.87.22,17.86.22,17.86-.89,8.48-.67,11.16,4.24,5.13,6.25,1.11-1.34-11.38-.67-14.95,6-23,7.37-28.13,4-20.31,4-20.31Z" style="fill:#fff;stroke:#263238;stroke-linecap:round;stroke-linejoin:round"></path><path d="M135.91,407.92c1.6-3.2-.2-8.53-.66-12.37a5.06,5.06,0,0,0-2.24-1.69c-1.32-.29-2.25,1.23-2.74,2.32a96.33,96.33,0,0,0-.61,10.63C129.88,409.49,133.9,411.94,135.91,407.92Z" style="fill:#407BFF;stroke:#263238;stroke-linecap:round;stroke-linejoin:round"></path><path d="M160.91,341.85a94.57,94.57,0,0,1,0,12.72,105.89,105.89,0,0,0,1.34,22.33c.89,4,3.8,19.19,3.8,19.19a8,8,0,0,0,2.68,1.12c1.33.22,3.12-.22,4.24.67s8.48,1.79,8.7.45.67-2.24-5.8-5.59c-3.37-1.74-5.58-2.9-5.58-2.9s3.12-27.45,3.12-35.94V339.39Z" style="fill:#fff;stroke:#263238;stroke-linecap:round;stroke-linejoin:round"></path><path d="M175.87,392.74c-3.37-1.74-5.58-2.9-5.58-2.9a4.19,4.19,0,0,0,.44,3.35l-5.59-1.82c.53,2.73.91,4.72.91,4.72a8,8,0,0,0,2.68,1.12c1.33.22,3.12-.22,4.24.67s8.48,1.79,8.7.45S182.34,396.09,175.87,392.74Z" style="fill:#407BFF;stroke:#263238;stroke-linecap:round;stroke-linejoin:round"></path><path d="M172.7,289.76s0,.28.06.78c.46,5.29,3.11,35.85,3.11,39.92,0,4.47.22,9.6.22,11.16s-9.82,1.79-13.84,2.46a42.39,42.39,0,0,1-7.14.67c-.67,0-1.56-17.86-1.56-17.86s-3.13,17.64-3.13,18.31,1.12.89-7.81.89a42,42,0,0,1-16.08-3.35l5.59-45.09,1.11-10.49,38.84-.9Z" style="fill:#263238;stroke:#263238;stroke-linecap:round;stroke-linejoin:round"></path><path d="M156.89,296.31l-.67,15.4h0a3.78,3.78,0,0,0,2.86-3.42l.72-11.54" style="fill:none;stroke:#fff;stroke-linecap:round;stroke-linejoin:round"></path><line x1="153.55" y1="326.89" x2="156" y2="314.17" style="fill:none;stroke:#fff;stroke-linecap:round;stroke-linejoin:round"></line><polyline points="130.11 318.63 145.73 320.86 145.29 326.89 130.55 324.21" style="fill:none;stroke:#fff;stroke-linecap:round;stroke-linejoin:round"></polyline><path d="M145.29,326.89l-1.23,11.72a3.07,3.07,0,0,1-3.55,2.72l-10.63-1.71" style="fill:none;stroke:#fff;stroke-linecap:round;stroke-linejoin:round"></path><polyline points="175.42 319.08 166.05 320.86 166.94 326 173.64 325.11" style="fill:none;stroke:#fff;stroke-linecap:round;stroke-linejoin:round"></polyline><path d="M166.94,326l1.32,11.55a2,2,0,0,0,2.3,1.76l4-.59" style="fill:none;stroke:#fff;stroke-linecap:round;stroke-linejoin:round"></path><path d="M142.16,293.63s-1.79,10.27-9.38,11.61" style="fill:none;stroke:#fff;stroke-linecap:round;stroke-linejoin:round"></path><path d="M149.36,215.11S135.6,219.28,132,221s-1.54,24.27-.31,36.32,1.4,33.39,1.4,33.39,5.87,2.32,16.23,2.63,23.34-3.56,23.34-3.56-.16-47.6-.16-54.4,1.7-8.66-1.85-13.14S158,214.18,149.36,215.11Z" style="fill:#fff;stroke:#263238;stroke-linecap:round;stroke-linejoin:round"></path><line x1="133.81" y1="249.16" x2="138.63" y2="239.54" style="fill:none;stroke:#263238;stroke-linecap:round;stroke-linejoin:round"></line><path d="M159.87,226.85c1.55-2.62.89-8.26.51-10.71a29,29,0,0,0-11-1s-1.91.57-4.49,1.39c-.28,2.52-.6,8.78,2.94,11.59C152.29,231.65,157.86,230.25,159.87,226.85Z" style="fill:#263238;stroke:#263238;stroke-linecap:round;stroke-linejoin:round"></path><path d="M147.81,202.59s.15,10.2.15,14.06-.46,9.43,4.49,11,6.33-3.56,6.33-7.27-.15-8.81-.15-8.81-6.18-7.57-7.42-8A31.74,31.74,0,0,0,147.81,202.59Z" style="fill:#fff;stroke:#263238;stroke-linecap:round;stroke-linejoin:round"></path><path d="M146,202.12s-3.1-11.74-3.1-14.37,8.2-6.34,13.76-6.49,9.58,1.54,10.82,4.17-.15,4.17-1.55,4.79-11.43-1.85-11.74,0,1.54,6.18.31,7.73-6,5.87-7.27,5.87S146,202.12,146,202.12Z" style="fill:#263238;stroke:#263238;stroke-linecap:round;stroke-linejoin:round"></path><path d="M148.27,205.52s1.86,3.87,3.71,5.1,11,3.71,12.83,2.79,2.63-9.28,2.63-14.53S165.89,187,165,187.13a6.6,6.6,0,0,1-3.56.31c-2.47-.31-8.65-2.17-10,.77s1.85,4.79,1.23,6.49-2.63,2.79-2.63,4.18-3.71,2.62-3.71,2.62Z" style="fill:#fff;stroke:#263238;stroke-linecap:round;stroke-linejoin:round"></path><polygon points="152.91 195.48 145.18 197.95 145.8 200.27 153.22 200.11 152.91 195.48" style="fill:#fff;stroke:#263238;stroke-linecap:round;stroke-linejoin:round"></polygon><path d="M149.66,202.28s-1.7-3.4-4-3.09-1.4,3.4-.31,5.41,4.17,1.39,4.17,1.39" style="fill:#fff;stroke:#263238;stroke-linecap:round;stroke-linejoin:round"></path><path d="M165.89,193.93s-8.81-1.39-12.67.46-2.32,6.19.77,6.5,10.51.15,12.68-.62S169.3,194.86,165.89,193.93Z" style="fill:#fff;stroke:#263238;stroke-linecap:round;stroke-linejoin:round"></path><path d="M168.52,193.16s-8.81-1.39-12.67.46-2.32,6.18.77,6.49,10.51.16,12.68-.62S171.92,194.08,168.52,193.16Z" style="fill:#fff;stroke:#263238;stroke-linecap:round;stroke-linejoin:round"></path><path d="M165,200.58a5.3,5.3,0,0,1,.77,2.32c0,1.08-1.24,1.54-3.71,1.54" style="fill:none;stroke:#263238;stroke-linecap:round;stroke-linejoin:round"></path><polygon points="164.9 264.96 171.11 257.91 183.69 257.87 177.32 265.3 164.9 264.96" style="fill:#263238;stroke:#263238;stroke-linecap:round;stroke-linejoin:round"></polygon><polygon points="171.11 257.91 168.76 254.38 162.21 262.44 164.9 264.96 171.11 257.91" style="fill:#fff;stroke:#263238;stroke-linecap:round;stroke-linejoin:round"></polygon><polygon points="168.76 254.38 182.02 254.55 183.69 257.87 171.11 257.91 168.76 254.38" style="fill:#fff;stroke:#263238;stroke-linecap:round;stroke-linejoin:round"></polygon><path d="M183.37,259.59s.67,2.68-.34,4.2-1,3.35-3,3.35-6.72-1.17-6-2.18l.68-1s.16-.33,1.34-.84-.34-1.51,2-2.51A15.91,15.91,0,0,1,183.37,259.59Z" style="fill:#fff;stroke:#263238;stroke-linecap:round;stroke-linejoin:round"></path><path d="M177,256.46a.89.89,0,0,1-.59-1.56l6-4.65a.44.44,0,0,1,.63,0,.45.45,0,0,1,0,.63l-5.37,5.32A.88.88,0,0,1,177,256.46Z" style="fill:#263238"></path><path d="M132,221s-7.26,3.25-9.42,8.81,1.54,48.38,2.62,50.39,5,.93,9.74,0,21.49-10.05,21.49-10.05,9.12-.31,11-1.23,3.25-2.94,4.17-3.4,2.94-2.94.93-2.94-8.65-.16-9.43,0a4.88,4.88,0,0,1-1.85-.16l3.55-2.16s1.24-2.32.62-2.63-1.54.93-2,1.24-4,.62-4.94,1.24-2.79,4.63-3.25,4.94-8.5,3.4-13.29,2.94a30,30,0,0,0-7.89.15s-.61-22.87-.15-28.44" style="fill:#fff;stroke:#263238;stroke-linecap:round;stroke-linejoin:round"></path><path d="M134.05,268.12s-3,1.68-3.67,4.08" style="fill:none;stroke:#263238;stroke-linecap:round;stroke-linejoin:round"></path><path d="M183.67,262.56a4.23,4.23,0,0,1,1.39,3.25" style="fill:none;stroke:#263238;stroke-linecap:round;stroke-linejoin:round"></path><path d="M135,280.18c4.86-.94,21.49-10.05,21.49-10.05s9.12-.31,11-1.23,3.25-2.94,4.17-3.4,2.94-2.94.93-2.94-8.65-.16-9.43,0a4.88,4.88,0,0,1-1.85-.16l3.55-2.16s1.24-2.32.62-2.63-1.54.93-2,1.24-4,.62-4.94,1.24-2.79,4.63-3.25,4.94-8.5,3.4-13.29,2.94a30,30,0,0,0-7.89.15s-.17-6.56-.27-13.51a34.55,34.55,0,0,0-11,2.06c.79,11.52,2,22.52,2.5,23.51C126.32,282.19,130.19,281.11,135,280.18Z" style="fill:none;stroke:#263238;stroke-linecap:round;stroke-linejoin:round"></path></g></svg>